<svg xmlns="http://www.w3.org/2000/svg" aria-hidden="true" style="position:absolute;width:0;height:0;overflow:hidden">
  <defs>
    <symbol id="icon-arrow" viewBox="0 0 32 32">
      <path fill="#d7b871" d="M6.377 24.956a.835.835 0 0 1 0-1.179L21.672 8.482l-11.989.1a.833.833 0 1 1-.014-1.667l14.038-.118a.83.83 0 0 1 .642.31.835.835 0 0 1 .185.555l-.117 14a.848.848 0 0 1-.24.603.826.826 0 0 1-.6.247.844.844 0 0 1-.596-.257.848.848 0 0 1-.231-.606l.1-11.989L7.555 24.955a.833.833 0 0 1-1.178 0z" style="fill:var(--color1, #d7b871)"/>
    </symbol>
    <symbol id="icon-caret" viewBox="0 0 32 32">
      <path fill="#d7b871" d="M16 3c-2.571 0-5.085.762-7.222 2.191S4.974 8.65 3.99 11.025a13.004 13.004 0 0 0 2.818 14.167 13.002 13.002 0 0 0 20.001-1.97A13.003 13.003 0 0 0 29 16 13.018 13.018 0 0 0 16 3zm0 24a10.996 10.996 0 0 1-10.162-6.791A10.999 10.999 0 1 1 27 16a11.015 11.015 0 0 1-11 11zm5.707-13.707a.991.991 0 0 1 .293.708 1.002 1.002 0 0 1-.293.708l-5 5a.991.991 0 0 1-.708.293 1.002 1.002 0 0 1-.708-.293l-5-5a1 1 0 1 1 1.414-1.414l4.293 4.294 4.293-4.294a.991.991 0 0 1 .708-.293 1.006 1.006 0 0 1 .708.293z" style="fill:var(--color1, #d7b871)"/>
    </symbol>
    <symbol id="icon-close" viewBox="0 0 32 32">
      <path fill="#fff" d="m8.532 25.333-1.867-1.867 7.467-7.467-7.467-7.467 1.867-1.867 7.467 7.467 7.467-7.467 1.867 1.867-7.467 7.467 7.467 7.467-1.867 1.867-7.467-7.467-7.467 7.467z" style="fill:var(--color2, #fff)"/>
    </symbol>
    <symbol id="icon-features1" viewBox="0 0 32 32">
      <path fill="#907b60" d="M6.574 1.652c-2.395.004-3.883 1.646-1.961 4.562-4.226-.102-5.199 5.583-.72 7.436 3.427 1.418 5.126-.376 8.937.938-4.001-.493-7.446 1.356-9.613 4.163-2.407 3.117-1.506 7.509 2.526 6.271-.564 4.195 3.899 6.259 6.494 2.948 2.237-2.854.969-6.485 2.615-11.43.444 3.857-.351 6.798.723 10.405 1.337 4.489 6.442 4.725 7.409.396 3.49 3.207 5.989-.588 4.735-4.79-1.125-3.768-5.673-6.137-10.478-7.419 4.551-.189 6.803 2.782 10.486 1.88 4.528-1.108 4.023-6.777-.676-8.058 2.86-3.432-1.215-6.878-5.449-5.82-3.57.892-5.678 4.499-6.371 8.958-.347-4.101-1.801-7.509-5.064-9.395-1.227-.71-2.503-1.046-3.592-1.045z" style="fill:var(--color3, #907b60)"/>
    </symbol>
    <symbol id="icon-menu" viewBox="0 0 32 32">
      <path fill="#fff" d="M4 24v-2.667h24V24H4zm0-6.667v-2.667h24v2.667H4zm0-6.666V8h24v2.667H4z" style="fill:var(--color2, #fff)"/>
    </symbol>
    <symbol id="icon-play1" viewBox="0 0 32 32">
      <path fill="#907b60" d="m14.325 1.146-.381.357C11.213 4.042 6.75 4.207 3.068 3.954l-.714-.049.096.709c.199 1.471.009 3.085-.436 4.466a8.459 8.459 0 0 1-.866 1.894v1.838c.87-.781 1.532-1.988 1.978-3.369.115-.362.214-.731.296-1.106l3.379-.188.331-2.99c1.806-.117 3.638-.462 5.269-1.24l2.469 2.022 1.688-1.881c1.062.479 2.225.768 3.4.756l.831 2.326 2.344-.131c.162.3.344.594.538.875.512.75 1.156 1.412 1.975 1.906l-.137 1.844 1.375.162c.044.706.15 1.388.356 2.038.213.656.531 1.281.981 1.838l-1.256 1.231.975.725c-1.225 1.575-1.619 3.275-1.431 4.85l-1.306.194.212 1.469c-1.594.45-3 1.55-3.794 2.969l-1.75-.912-.306 1.55c-1.344-.212-2.806-.175-4.156.306l-.981-1.813-1.625 1.375c-.731-.812-1.644-1.444-2.613-1.906a10.63 10.63 0 0 0-2.05-.744l.656-2.65-2.344.375a8.91 8.91 0 0 0 .125-1.75 6.232 6.232 0 0 0-.503-2.35l2.64-1.712-2.225-1.206a7.887 7.887 0 0 0 2.131-3.594l2.762.362-.419-1.919c.319-.012.638-.038.956-.094a5.43 5.43 0 0 0 2.162-.862l1.212 1.931 1.15-1.994c.381.144.763.219 1.131.244.269.025.525.019.781-.006l.375 2.325 1.556-1.15c.294.406.625.738.988 1 .262.194.531.35.812.481l-.8 2.113 1.988-.231c.031.319.106.612.212.888.063.169.144.338.225.494l-1.988.887 1.681 1.338c-.2.3-.363.612-.481.95a4.34 4.34 0 0 0-.212 1.306l-1.412-.537.25 2.162a6.899 6.899 0 0 0-.569.288 5.65 5.65 0 0 0-.862.587l-1.325-1.619-.894 2.05a4.07 4.07 0 0 0-1.944.1l-.488-1.331-1.262.944a7.048 7.048 0 0 0-1.581-1.2l1.256-1.75-2.312-.175c.081-.469.112-.938.056-1.394l1.706-.275-1.05-1.231c.169-.125.325-.269.462-.425.3-.35.475-.775.563-1.256.419.094.85.106 1.262-.012.488-.131.925-.425 1.294-.838.806.669 1.694 1.2 2.631 1.462a3.644 3.644 0 0 0-.15 1.2c.019.344.106.694.269 1.031-.662.1-1.319.3-1.938.656-.55-.906-1.369-1.581-2.694-1.819.794 1.369 1.669 2.712 1.775 4.312l.862-1.019c.9-.813 1.9-1.031 3.075-1.044l1.394-.013-.987-.987c-.438-.431-.569-.788-.594-1.188-.025-.394.094-.85.294-1.356l.275-.7-.744-.094c-1.025-.125-2.162-.788-3.162-1.725l-.538-.506-.362.638c-.294.506-.65.762-1.012.862-.356.1-.75.056-1.156-.181l-.869-.5-.006 1c-.006.7-.119 1.025-.369 1.306-.244.288-.719.569-1.519.925l-.625.275.369.569c.688 1.088.481 2.269-.225 3.769l-.313.662.713.156c1.469.319 3.144 1.256 3.956 2.831l.338.662.556-.481c1.169-.994 2.519-1.144 4.037-.088l.581.413.288-.656c.256-.6.844-1.144 1.544-1.531.694-.394 1.494-.625 2.05-.669l.737-.063-.225-.7c-.312-.944-.319-1.737-.088-2.425.238-.694.731-1.306 1.55-1.862l.512-.344-.375-.494c-.469-.625-.919-1.181-1.144-1.769-.219-.587-.269-1.194.106-2.106l.269-.656-.694-.138c-.881-.181-1.669-.419-2.294-.875s-1.125-1.125-1.444-2.331l-.156-.6-.588.188c-.669.219-1.394.406-2.119.356-.719-.05-1.456-.319-2.244-1.125l-.488-.487-.4.556c-.806 1.094-1.75 1.569-2.8 1.75-1.056.175-2.219.031-3.306-.206l-.775-.162.069.781c.162 2.038-.875 5.088-4.093 6.5l-.929.413.819.594c1.406 1.031 1.859 2.356 1.899 3.781s-.381 2.906-.782 4.006l-.294.812.86-.025c1.301-.038 3.001.275 4.489.988 1.481.719 2.731 1.812 3.281 3.325l.281.762h.119l.556-.544c2.019-1.95 5.256-1.738 7.45-.875l.662.256.125-.7c.406-2.256 3.075-4.225 5.5-3.862l1.131.169-.531-1.019c-1.138-2.181-1.094-4.894 2.037-7.356l.556-.438v-.106l-.594-.4c-1.038-.688-1.588-1.5-1.906-2.494s-.375-2.188-.313-3.525l.025-.475-.462-.119c-1.388-.356-2.263-1.106-2.969-2.138-.712-1.029-1.212-2.35-1.731-3.737l-.225-.595-.575.271c-2.438 1.151-5.45.059-7.369-1.667l-.394-.35h-.012v-.001z" style="fill:var(--color3, #907b60)"/>
    </symbol>
    <symbol id="icon-play2" viewBox="0 0 32 32">
      <path fill="#907b60" d="m14.598 1.014-.971 3.394-4.949-.799-.186 1.153 4.812.777-.932 3.26 1.123.321.689-2.409c5.785.928 11.088 1.668 17.063 1.051-4.936-2.458-10.406-3.225-16.177-4.148l.652-2.279-1.123-.321zm-4.294 7.528-.843.81 4.353 4.531-3.727 2.152.584 1.012 2.756-1.591c5.202 5.405 10.046 10.262 16.73 14.453-3.043-6.072-8.062-11.072-13.252-16.461l2.511-1.45-.584-1.012-3.977 2.296-4.552-4.739zm-5.444.839-1.114.353 1.309 4.131-3.374.851.286 1.133 2.426-.612c1.585 4.977 3.142 9.489 6.194 13.876.144-5.051-1.447-9.709-3.03-14.674l2.362-.595-.286-1.133-3.442.868-1.33-4.198z" style="fill:var(--color3, #907b60)"/>
    </symbol>
    <symbol id="icon-play3" viewBox="0 0 32 32">
      <path fill="#907b60" d="M23.129 4.855a5.745 5.745 0 0 0-1.988.366c-.914.346-1.069 1.08-.782 1.493.882 1.846 1.153 3.898.236 5.631-1.073-1.62-2.743-2.651-4.595-2.651s-3.522 1.031-4.595 2.651c-.917-1.733-.646-3.785.236-5.631.288-.414.134-1.148-.781-1.493-2.599-.981-5.578.11-6.885 2.051 1.916-.544 4.187-1.745 6.441-.447.042.024.084.046.125.065-.833 2.069-.974 4.43.339 6.399-.221.48-.396.995-.516 1.537-1.678-1.068-2.46-3.031-2.595-5.107l-.011.001c-.001-.539-.845-1.147-1.904-.751-2.601.973-4.128 3.755-3.833 6.077 1.063-1.637 2.416-4.093 4.869-4.668.273 2.2 1.275 4.334 3.318 5.443a8.377 8.377 0 0 0-.018 1.303c-1.566-.358-2.886-1.478-3.863-2.901l-.008-.011-.067-.096-.005.003c-.361-.405-1.184-.494-1.808.263-1.766 2.143-1.567 4.604-.866 6.695.103-1.973.506-4.023 2.42-5.729 1.107 1.382 2.588 2.468 4.339 2.758.146.624.388 1.138.708 1.564-1.317.148-2.707-.194-3.991-.828l-.002.004c-.456-.216-1.093.052-1.213 1.008-.342 2.739.887 5.454 2.499 6.358-.833-1.497-1.488-3.682-.862-6.144a.105.105 0 0 1 .004-.017c1.406.543 2.939.763 4.387.424.302.221.645.404 1.018.554-.58.154-1.18.766-1.229 1.643-.113 2.057 1.762 2.877 3.194 2.482-1.147-.534-1.693-2.362-.856-3.259a1.186 1.186 0 0 0-.188-.579 9.695 9.695 0 0 0 2.198.232c.87 0 1.684-.091 2.409-.285-.12.146-.203.355-.228.632.837.896.291 2.724-.856 3.259 1.432.396 3.308-.425 3.194-2.482-.052-.934-.728-1.568-1.341-1.667.351-.145.673-.321.96-.53 1.448.338 2.981.118 4.386-.425l.004.018c.624 2.463-.029 4.646-.862 6.144 1.612-.904 2.842-3.618 2.499-6.358-.119-.956-.757-1.224-1.213-1.008l-.002-.005c-1.283.634-2.673.976-3.989.828a4.12 4.12 0 0 0 .707-1.563c1.751-.29 3.233-1.377 4.339-2.759 1.914 1.706 2.317 3.757 2.42 5.729.701-2.091.9-4.551-.866-6.695-.624-.757-1.447-.668-1.808-.262l-.005-.003-.067.096-.008.011c-.977 1.423-2.297 2.543-3.863 2.901a8.054 8.054 0 0 0-.018-1.305c2.043-1.109 3.045-3.243 3.318-5.443 2.453.576 3.806 3.032 4.869 4.668.294-2.322-1.232-5.104-3.833-6.077-1.058-.395-1.902.213-1.903.752l-.011-.001c-.135 2.076-.917 4.038-2.594 5.106a7.578 7.578 0 0 0-.516-1.536c1.313-1.969 1.172-4.331.339-6.4.041-.019.083-.041.125-.065 2.254-1.298 4.525-.096 6.441.447-.98-1.456-2.901-2.433-4.897-2.417zm-9.968 10.421a2.2 2.2 0 1 1 .001 4.4 2.2 2.2 0 0 1-.001-4.4zm5.678 0a2.201 2.201 0 1 1 0 4.402 2.201 2.201 0 0 1 0-4.402zm-6.063.561a1.101 1.101 0 1 0 0 2.202 1.101 1.101 0 0 0 0-2.202zm5.678 0a1.101 1.101 0 1 0 0 2.202 1.101 1.101 0 0 0 0-2.202zm-4.324 2.214a.55.55 0 1 0 0 1.1.55.55 0 0 0 0-1.1zm5.677 0a.55.55 0 1 0 0 1.1.55.55 0 0 0 0-1.1z" style="fill:var(--color3, #907b60)"/>
    </symbol>
    <symbol id="icon-play4" viewBox="0 0 32 32">
      <path fill="#907b60" d="M15.752 1.442c-6.2 0-11.227 3.685-11.227 8.23 0 3.542 3.053 6.56 7.334 7.721.74 3.889 4.029 13.461 4.029 13.461s3.337-9.708 4.045-13.543c4.13-1.216 7.045-4.177 7.045-7.639 0-4.545-5.026-8.23-11.227-8.23zM10.188 5.34c2.478 0 4.477 1.998 4.477 4.477s-1.998 4.477-4.477 4.477-4.477-1.998-4.477-4.477S7.709 5.34 10.188 5.34zm11.226 0c2.478 0 4.477 1.998 4.477 4.477s-1.998 4.477-4.477 4.477c-2.478 0-4.477-1.998-4.477-4.477s1.998-4.477 4.477-4.477zM10.436 6.727c-1.044 0-1.957.53-2.488 1.338a3.073 3.073 0 0 1 2.995.019 1.176 1.176 0 1 0 1.225 1.282 3.06 3.06 0 0 1 .024 2.745 2.966 2.966 0 0 0 1.221-2.406 2.967 2.967 0 0 0-2.975-2.977zm11.25 0a2.97 2.97 0 0 0-2.467 1.303 3.066 3.066 0 0 1 2.926.054 1.175 1.175 0 1 0 1.209 1.246 3.069 3.069 0 0 1 .02 2.827 2.966 2.966 0 0 0 1.287-2.453 2.967 2.967 0 0 0-2.975-2.977zm-7.913 7.525c.413-.003.82.497.961 1.225.161.832.104 5.219.104 5.219s-1.636-3.76-1.797-4.592c-.161-.832.087-1.645.555-1.818a.505.505 0 0 1 .178-.033zm4.178.086c.059 0 .119.012.178.033.467.173.716.988.555 1.82s-1.797 4.59-1.797 4.59-.058-4.386.104-5.219c.141-.728.548-1.227.961-1.225z" style="fill:var(--color3, #907b60)"/>
    </symbol>
    <symbol id="icon-playstore" viewBox="0 0 32 32">
      <path fill="#ea4335" d="M15.066 15.282 2.003 29.341l.002.009C2.406 30.877 3.78 32 5.412 32c.653 0 1.265-.179 1.79-.493l.042-.025 14.703-8.603-6.881-7.597z" style="fill:var(--color4, #ea4335)"/>
      <path fill="#fbbc04" d="m28.28 12.888-.012-.009-6.348-3.731-7.151 6.453 7.177 7.276 6.314-3.694a3.589 3.589 0 0 0 1.859-3.154 3.583 3.583 0 0 0-1.838-3.142z" style="fill:var(--color5, #fbbc04)"/>
      <path fill="#4285f4" d="M2.003 2.658a3.54 3.54 0 0 0-.12.921v24.843c0 .319.042.627.121.919l13.51-13.699L2.003 2.658z" style="fill:var(--color6, #4285f4)"/>
      <path fill="#34a853" d="m15.163 16 6.76-6.854L7.237.512A3.492 3.492 0 0 0 5.414.001c-1.632 0-3.008 1.126-3.409 2.654l-.001.004 13.159 13.342z" style="fill:var(--color7, #34a853)"/>
    </symbol>
  </defs>
</svg>
